<svg width="860" height="433" viewBox="0 0 860 433" fill="none" xmlns="http://www.w3.org/2000/svg">
<g clip-path="url(#clip0_1176_20139)">
<rect width="860" height="432.015" fill="#E7EDF7"/>
<g opacity="0.05" clip-path="url(#clip1_1176_20139)">
<mask id="mask0_1176_20139" style="mask-type:luminance" maskUnits="userSpaceOnUse" x="-220" y="-337" width="538" height="536">
<path d="M317.624 -337H-219.376V199H317.624V-337Z" fill="white"/>
</mask>
<g mask="url(#mask0_1176_20139)">
<path fill-rule="evenodd" clip-rule="evenodd" d="M49.1243 199C197.411 199 317.624 79.0111 317.624 -69C317.624 -217.012 197.411 -337 49.1243 -337C-99.1643 -337 -219.376 -217.012 -219.376 -69C-219.376 79.0111 -99.1643 199 49.1243 199ZM49.1243 48.25C113.999 48.25 166.593 -4.24583 166.593 -69C166.593 -133.755 113.999 -186.25 49.1243 -186.25C-15.7521 -186.25 -68.3445 -133.755 -68.3445 -69C-68.3445 -4.24583 -15.7521 48.25 49.1243 48.25Z" fill="url(#paint0_linear_1176_20139)"/>
</g>
</g>
<g opacity="0.05" clip-path="url(#clip2_1176_20139)">
<mask id="mask1_1176_20139" style="mask-type:luminance" maskUnits="userSpaceOnUse" x="-290" y="25" width="555" height="554">
<path d="M264.624 25H-289.376V579H264.624V25Z" fill="white"/>
</mask>
<g mask="url(#mask1_1176_20139)">
<path fill-rule="evenodd" clip-rule="evenodd" d="M-12.3757 579C140.606 579 264.624 454.982 264.624 302C264.624 149.017 140.606 25 -12.3757 25C-165.359 25 -289.376 149.017 -289.376 302C-289.376 454.982 -165.359 579 -12.3757 579ZM-12.3757 423.188C54.553 423.188 108.812 368.929 108.812 302C108.812 235.07 54.553 180.812 -12.3757 180.812C-79.3059 180.812 -133.563 235.07 -133.563 302C-133.563 368.929 -79.3059 423.188 -12.3757 423.188Z" fill="url(#paint1_linear_1176_20139)"/>
</g>
</g>
<path d="M487.854 80.1775H482.746V56.085C482.746 45.661 491.168 37.239 501.592 37.239C512.085 37.239 520.507 45.661 520.507 56.085C520.507 66.509 512.085 75 501.592 75C496.207 75 491.306 72.7219 487.854 69.0632V80.1775ZM487.854 56.085C487.854 63.6786 493.998 69.8916 501.592 69.8916C509.255 69.8916 515.399 63.6786 515.399 56.085C515.399 48.4914 509.255 42.3475 501.592 42.3475C493.998 42.3475 487.854 48.4914 487.854 56.085ZM561.832 56.085V74.6548H556.724V69.0632C553.272 72.7219 548.371 75 542.986 75C532.562 75 524.071 66.509 524.071 56.085C524.071 45.661 532.562 37.239 542.986 37.239C553.41 37.239 561.832 45.661 561.832 56.085ZM542.986 69.8916C550.58 69.8916 556.724 63.6786 556.724 56.085C556.724 48.4914 550.58 42.3475 542.986 42.3475C535.393 42.3475 529.18 48.4914 529.18 56.085C529.18 63.6786 535.393 69.8916 542.986 69.8916ZM584.726 37.6532H603.02V56.085C603.02 66.509 594.598 75 584.174 75C574.578 75 566.708 67.8896 565.466 58.6392H570.643C571.817 65.0593 577.408 69.8916 584.174 69.8916C591.767 69.8916 597.911 63.6786 597.911 56.085V42.7617H586.797L576.442 53.1166V53.0476H565.397V47.9391H574.371L584.726 37.6532ZM625.916 37.6532H644.21V56.085C644.21 66.509 635.788 75 625.364 75C615.768 75 607.899 67.8896 606.656 58.6392H611.834C613.007 65.0593 618.599 69.8916 625.364 69.8916C632.958 69.8916 639.102 63.6786 639.102 56.085V42.7617H627.987L617.632 53.1166V53.0476H606.587V47.9391H615.561L625.916 37.6532ZM684.296 49.3198L664 69.6154C664.898 69.7535 665.795 69.8916 666.693 69.8916C673.389 69.8916 678.98 65.0593 680.223 58.6392H685.4C684.158 67.8896 676.219 75 666.693 75C656.269 75 647.778 66.509 647.778 56.085C647.778 45.661 656.269 37.239 666.693 37.239C674.7 37.239 681.604 42.2094 684.296 49.3198ZM652.886 56.085C652.886 60.8483 655.302 64.9902 658.961 67.4754L678.083 48.3533C675.598 44.7636 671.387 42.3475 666.693 42.3475C659.099 42.3475 652.886 48.4914 652.886 56.085ZM694.077 80.1775H688.968V56.085C688.968 45.661 697.39 37.239 707.814 37.239C718.307 37.239 726.729 45.661 726.729 56.085C726.729 66.509 718.307 75 707.814 75C702.429 75 697.528 72.7219 694.077 69.0632V80.1775ZM694.077 56.085C694.077 63.6786 700.22 69.8916 707.814 69.8916C715.477 69.8916 721.621 63.6786 721.621 56.085C721.621 48.4914 715.477 42.3475 707.814 42.3475C700.22 42.3475 694.077 48.4914 694.077 56.085ZM749.208 37.239C759.632 37.239 768.054 45.661 768.054 56.085C768.054 66.509 759.632 75 749.208 75C738.784 75 730.293 66.509 730.293 56.085C730.293 45.661 738.784 37.239 749.208 37.239ZM749.208 69.8916C756.802 69.8916 762.946 63.6786 762.946 56.085C762.946 48.4914 756.802 42.3475 749.208 42.3475C741.615 42.3475 735.402 48.4914 735.402 56.085C735.402 63.6786 741.615 69.8916 749.208 69.8916ZM771.619 56.085C771.619 45.661 780.041 37.239 790.465 37.17V42.2784C782.871 42.3475 776.727 48.4914 776.727 56.085V74.6548H771.619V56.085ZM794.068 32.0616H799.176V48.4224H812.776V53.5308H799.176V56.085C799.176 63.6786 805.32 69.8225 812.914 69.8916V75C802.49 75 794.068 66.7161 794.068 56.2921V32.0616ZM578.918 121.892C585.615 121.892 591.206 117.059 592.449 110.639H597.626C596.384 119.89 588.445 127 578.918 127C568.494 127 560.003 118.509 560.003 108.085C560.003 97.661 568.494 89.239 578.918 89.239C588.445 89.239 596.384 96.3494 597.626 105.531H592.449C591.206 99.1798 585.615 94.3475 578.918 94.3475C571.325 94.3475 565.112 100.491 565.112 108.085C565.112 115.679 571.325 121.892 578.918 121.892ZM638.955 108.085V126.655H633.846V121.063C630.395 124.722 625.493 127 620.109 127C609.685 127 601.194 118.509 601.194 108.085C601.194 97.661 609.685 89.239 620.109 89.239C630.533 89.239 638.955 97.661 638.955 108.085ZM620.109 121.892C627.703 121.892 633.846 115.679 633.846 108.085C633.846 100.491 627.703 94.3475 620.109 94.3475C612.515 94.3475 606.302 100.491 606.302 108.085C606.302 115.679 612.515 121.892 620.109 121.892ZM642.519 108.085C642.519 97.661 650.941 89.239 661.365 89.17V94.2784C653.772 94.3475 647.628 100.491 647.628 108.085V126.655H642.519V108.085ZM664.968 108.085V84.1996H670.077V95.1759C673.528 91.5171 678.43 89.239 683.814 89.239C694.307 89.239 702.729 97.661 702.729 108.085C702.729 118.509 694.307 127 683.814 127C673.39 127 664.968 118.509 664.968 108.085ZM683.814 94.3475C676.221 94.3475 670.077 100.491 670.077 108.085C670.077 115.679 676.221 121.892 683.814 121.892C691.477 121.892 697.621 115.679 697.621 108.085C697.621 100.491 691.477 94.3475 683.814 94.3475ZM725.209 89.239C735.633 89.239 744.055 97.661 744.055 108.085C744.055 118.509 735.633 127 725.209 127C714.785 127 706.294 118.509 706.294 108.085C706.294 97.661 714.785 89.239 725.209 89.239ZM725.209 121.892C732.802 121.892 738.946 115.679 738.946 108.085C738.946 100.491 732.802 94.3475 725.209 94.3475C717.615 94.3475 711.402 100.491 711.402 108.085C711.402 115.679 717.615 121.892 725.209 121.892ZM785.311 108.223V126.655H780.203V108.223C780.203 100.629 774.059 94.4165 766.465 94.4165C758.871 94.4165 752.727 100.629 752.727 108.223V126.655H747.619V108.085C747.619 97.661 756.041 89.3081 766.465 89.3081C776.889 89.3081 785.311 97.7991 785.311 108.223ZM825.328 101.32L805.032 121.615C805.93 121.754 806.827 121.892 807.725 121.892C814.421 121.892 820.012 117.059 821.255 110.639H826.432C825.19 119.89 817.251 127 807.725 127C797.301 127 788.81 118.509 788.81 108.085C788.81 97.661 797.301 89.239 807.725 89.239C815.732 89.239 822.636 94.2094 825.328 101.32ZM793.918 108.085C793.918 112.848 796.334 116.99 799.993 119.475L819.115 100.353C816.63 96.7636 812.419 94.3475 807.725 94.3475C800.131 94.3475 793.918 100.491 793.918 108.085Z" fill="black"/>
<g clip-path="url(#clip3_1176_20139)">
<rect width="820" height="44.25" transform="translate(20 235.015)" fill="#9DB8DC"/>
<path d="M45.112 256.832C45.416 256.88 45.692 257.004 45.94 257.204C46.196 257.404 46.396 257.652 46.54 257.948C46.692 258.244 46.768 258.56 46.768 258.896C46.768 259.32 46.66 259.704 46.444 260.048C46.228 260.384 45.912 260.652 45.496 260.852C45.088 261.044 44.604 261.14 44.044 261.14H40.924V252.776H43.924C44.492 252.776 44.976 252.872 45.376 253.064C45.776 253.248 46.076 253.5 46.276 253.82C46.476 254.14 46.576 254.5 46.576 254.9C46.576 255.396 46.44 255.808 46.168 256.136C45.904 256.456 45.552 256.688 45.112 256.832ZM42.016 256.388H43.852C44.364 256.388 44.76 256.268 45.04 256.028C45.32 255.788 45.46 255.456 45.46 255.032C45.46 254.608 45.32 254.276 45.04 254.036C44.76 253.796 44.356 253.676 43.828 253.676H42.016V256.388ZM43.948 260.24C44.492 260.24 44.916 260.112 45.22 259.856C45.524 259.6 45.676 259.244 45.676 258.788C45.676 258.324 45.516 257.96 45.196 257.696C44.876 257.424 44.448 257.288 43.912 257.288H42.016V260.24H43.948ZM49.3754 260.252H52.3034V261.14H48.2834V252.776H49.3754V260.252ZM54.5311 252.776V258.068C54.5311 258.812 54.7111 259.364 55.0711 259.724C55.4391 260.084 55.9471 260.264 56.5951 260.264C57.2351 260.264 57.7351 260.084 58.0951 259.724C58.4631 259.364 58.6471 258.812 58.6471 258.068V252.776H59.7391V258.056C59.7391 258.752 59.5991 259.34 59.3191 259.82C59.0391 260.292 58.6591 260.644 58.1791 260.876C57.7071 261.108 57.1751 261.224 56.5831 261.224C55.9911 261.224 55.4551 261.108 54.9751 260.876C54.5031 260.644 54.1271 260.292 53.8471 259.82C53.5751 259.34 53.4391 258.752 53.4391 258.056V252.776H54.5311ZM62.6527 253.664V256.46H65.7007V257.36H62.6527V260.24H66.0607V261.14H61.5607V252.764H66.0607V253.664H62.6527ZM70.7083 254.648C70.7643 253.912 71.0483 253.336 71.5603 252.92C72.0723 252.504 72.7363 252.296 73.5523 252.296C74.0963 252.296 74.5643 252.396 74.9563 252.596C75.3563 252.788 75.6563 253.052 75.8563 253.388C76.0643 253.724 76.1683 254.104 76.1683 254.528C76.1683 255.024 76.0243 255.452 75.7363 255.812C75.4563 256.172 75.0883 256.404 74.6323 256.508V256.568C75.1523 256.696 75.5643 256.948 75.8683 257.324C76.1723 257.7 76.3243 258.192 76.3243 258.8C76.3243 259.256 76.2203 259.668 76.0123 260.036C75.8043 260.396 75.4923 260.68 75.0763 260.888C74.6603 261.096 74.1603 261.2 73.5763 261.2C72.7283 261.2 72.0323 260.98 71.4883 260.54C70.9443 260.092 70.6403 259.46 70.5763 258.644H71.6323C71.6883 259.124 71.8843 259.516 72.2203 259.82C72.5563 260.124 73.0043 260.276 73.5643 260.276C74.1243 260.276 74.5483 260.132 74.8363 259.844C75.1323 259.548 75.2803 259.168 75.2803 258.704C75.2803 258.104 75.0803 257.672 74.6803 257.408C74.2803 257.144 73.6763 257.012 72.8683 257.012H72.5923V256.1H72.8803C73.6163 256.092 74.1723 255.972 74.5483 255.74C74.9243 255.5 75.1123 255.132 75.1123 254.636C75.1123 254.212 74.9723 253.872 74.6923 253.616C74.4203 253.36 74.0283 253.232 73.5163 253.232C73.0203 253.232 72.6203 253.36 72.3163 253.616C72.0123 253.872 71.8323 254.216 71.7763 254.648H70.7083ZM77.7987 256.712C77.7987 255.336 78.0227 254.264 78.4707 253.496C78.9187 252.72 79.7027 252.332 80.8227 252.332C81.9347 252.332 82.7147 252.72 83.1627 253.496C83.6107 254.264 83.8347 255.336 83.8347 256.712C83.8347 258.112 83.6107 259.2 83.1627 259.976C82.7147 260.752 81.9347 261.14 80.8227 261.14C79.7027 261.14 78.9187 260.752 78.4707 259.976C78.0227 259.2 77.7987 258.112 77.7987 256.712ZM82.7547 256.712C82.7547 256.016 82.7067 255.428 82.6107 254.948C82.5227 254.46 82.3347 254.068 82.0467 253.772C81.7667 253.476 81.3587 253.328 80.8227 253.328C80.2787 253.328 79.8627 253.476 79.5747 253.772C79.2947 254.068 79.1067 254.46 79.0107 254.948C78.9227 255.428 78.8787 256.016 78.8787 256.712C78.8787 257.432 78.9227 258.036 79.0107 258.524C79.1067 259.012 79.2947 259.404 79.5747 259.7C79.8627 259.996 80.2787 260.144 80.8227 260.144C81.3587 260.144 81.7667 259.996 82.0467 259.7C82.3347 259.404 82.5227 259.012 82.6107 258.524C82.7067 258.036 82.7547 257.432 82.7547 256.712ZM85.3338 256.712C85.3338 255.336 85.5578 254.264 86.0058 253.496C86.4538 252.72 87.2378 252.332 88.3578 252.332C89.4698 252.332 90.2498 252.72 90.6978 253.496C91.1458 254.264 91.3698 255.336 91.3698 256.712C91.3698 258.112 91.1458 259.2 90.6978 259.976C90.2498 260.752 89.4698 261.14 88.3578 261.14C87.2378 261.14 86.4538 260.752 86.0058 259.976C85.5578 259.2 85.3338 258.112 85.3338 256.712ZM90.2898 256.712C90.2898 256.016 90.2418 255.428 90.1458 254.948C90.0578 254.46 89.8698 254.068 89.5818 253.772C89.3018 253.476 88.8938 253.328 88.3578 253.328C87.8138 253.328 87.3978 253.476 87.1098 253.772C86.8298 254.068 86.6418 254.46 86.5458 254.948C86.4578 255.428 86.4138 256.016 86.4138 256.712C86.4138 257.432 86.4578 258.036 86.5458 258.524C86.6418 259.012 86.8298 259.404 87.1098 259.7C87.3978 259.996 87.8138 260.144 88.3578 260.144C88.8938 260.144 89.3018 259.996 89.5818 259.7C89.8698 259.404 90.0578 259.012 90.1458 258.524C90.2418 258.036 90.2898 257.432 90.2898 256.712Z" fill="white"/>
<rect width="820" height="44.25" transform="translate(20 279.265)" fill="#4574B2"/>
<path d="M45.112 301.082C45.416 301.13 45.692 301.254 45.94 301.454C46.196 301.654 46.396 301.902 46.54 302.198C46.692 302.494 46.768 302.81 46.768 303.146C46.768 303.57 46.66 303.954 46.444 304.298C46.228 304.634 45.912 304.902 45.496 305.102C45.088 305.294 44.604 305.39 44.044 305.39H40.924V297.026H43.924C44.492 297.026 44.976 297.122 45.376 297.314C45.776 297.498 46.076 297.75 46.276 298.07C46.476 298.39 46.576 298.75 46.576 299.15C46.576 299.646 46.44 300.058 46.168 300.386C45.904 300.706 45.552 300.938 45.112 301.082ZM42.016 300.638H43.852C44.364 300.638 44.76 300.518 45.04 300.278C45.32 300.038 45.46 299.706 45.46 299.282C45.46 298.858 45.32 298.526 45.04 298.286C44.76 298.046 44.356 297.926 43.828 297.926H42.016V300.638ZM43.948 304.49C44.492 304.49 44.916 304.362 45.22 304.106C45.524 303.85 45.676 303.494 45.676 303.038C45.676 302.574 45.516 302.21 45.196 301.946C44.876 301.674 44.448 301.538 43.912 301.538H42.016V304.49H43.948ZM49.3754 304.502H52.3034V305.39H48.2834V297.026H49.3754V304.502ZM54.5311 297.026V302.318C54.5311 303.062 54.7111 303.614 55.0711 303.974C55.4391 304.334 55.9471 304.514 56.5951 304.514C57.2351 304.514 57.7351 304.334 58.0951 303.974C58.4631 303.614 58.6471 303.062 58.6471 302.318V297.026H59.7391V302.306C59.7391 303.002 59.5991 303.59 59.3191 304.07C59.0391 304.542 58.6591 304.894 58.1791 305.126C57.7071 305.358 57.1751 305.474 56.5831 305.474C55.9911 305.474 55.4551 305.358 54.9751 305.126C54.5031 304.894 54.1271 304.542 53.8471 304.07C53.5751 303.59 53.4391 303.002 53.4391 302.306V297.026H54.5311ZM62.6527 297.914V300.71H65.7007V301.61H62.6527V304.49H66.0607V305.39H61.5607V297.014H66.0607V297.914H62.6527ZM76.2643 297.662H72.0523V300.398C72.2363 300.142 72.5083 299.934 72.8683 299.774C73.2283 299.606 73.6163 299.522 74.0323 299.522C74.6963 299.522 75.2363 299.662 75.6523 299.942C76.0683 300.214 76.3643 300.57 76.5403 301.01C76.7243 301.442 76.8163 301.902 76.8163 302.39C76.8163 302.966 76.7083 303.482 76.4923 303.938C76.2763 304.394 75.9443 304.754 75.4963 305.018C75.0563 305.282 74.5083 305.414 73.8523 305.414C73.0123 305.414 72.3323 305.198 71.8123 304.766C71.2923 304.334 70.9763 303.758 70.8643 303.038H71.9323C72.0363 303.494 72.2563 303.85 72.5923 304.106C72.9283 304.362 73.3523 304.49 73.8643 304.49C74.4963 304.49 74.9723 304.302 75.2923 303.926C75.6123 303.542 75.7723 303.038 75.7723 302.414C75.7723 301.79 75.6123 301.31 75.2923 300.974C74.9723 300.63 74.5003 300.458 73.8763 300.458C73.4523 300.458 73.0803 300.562 72.7603 300.77C72.4483 300.97 72.2203 301.246 72.0763 301.598H71.0443V296.702H76.2643V297.662ZM78.2674 300.962C78.2674 299.586 78.4914 298.514 78.9394 297.746C79.3874 296.97 80.1714 296.582 81.2914 296.582C82.4034 296.582 83.1834 296.97 83.6314 297.746C84.0794 298.514 84.3034 299.586 84.3034 300.962C84.3034 302.362 84.0794 303.45 83.6314 304.226C83.1834 305.002 82.4034 305.39 81.2914 305.39C80.1714 305.39 79.3874 305.002 78.9394 304.226C78.4914 303.45 78.2674 302.362 78.2674 300.962ZM83.2234 300.962C83.2234 300.266 83.1754 299.678 83.0794 299.198C82.9914 298.71 82.8034 298.318 82.5154 298.022C82.2354 297.726 81.8274 297.578 81.2914 297.578C80.7474 297.578 80.3314 297.726 80.0434 298.022C79.7634 298.318 79.5754 298.71 79.4794 299.198C79.3914 299.678 79.3474 300.266 79.3474 300.962C79.3474 301.682 79.3914 302.286 79.4794 302.774C79.5754 303.262 79.7634 303.654 80.0434 303.95C80.3314 304.246 80.7474 304.394 81.2914 304.394C81.8274 304.394 82.2354 304.246 82.5154 303.95C82.8034 303.654 82.9914 303.262 83.0794 302.774C83.1754 302.286 83.2234 301.682 83.2234 300.962ZM85.8026 300.962C85.8026 299.586 86.0266 298.514 86.4746 297.746C86.9226 296.97 87.7066 296.582 88.8266 296.582C89.9386 296.582 90.7186 296.97 91.1666 297.746C91.6146 298.514 91.8386 299.586 91.8386 300.962C91.8386 302.362 91.6146 303.45 91.1666 304.226C90.7186 305.002 89.9386 305.39 88.8266 305.39C87.7066 305.39 86.9226 305.002 86.4746 304.226C86.0266 303.45 85.8026 302.362 85.8026 300.962ZM90.7586 300.962C90.7586 300.266 90.7106 299.678 90.6146 299.198C90.5266 298.71 90.3386 298.318 90.0506 298.022C89.7706 297.726 89.3626 297.578 88.8266 297.578C88.2826 297.578 87.8666 297.726 87.5786 298.022C87.2986 298.318 87.1106 298.71 87.0146 299.198C86.9266 299.678 86.8826 300.266 86.8826 300.962C86.8826 301.682 86.9266 302.286 87.0146 302.774C87.1106 303.262 87.2986 303.654 87.5786 303.95C87.8666 304.246 88.2826 304.394 88.8266 304.394C89.3626 304.394 89.7706 304.246 90.0506 303.95C90.3386 303.654 90.5266 303.262 90.6146 302.774C90.7106 302.286 90.7586 301.682 90.7586 300.962Z" fill="white"/>
<rect width="820" height="44.25" transform="translate(20 323.515)" fill="#2F5187"/>
<path d="M45.112 345.332C45.416 345.38 45.692 345.504 45.94 345.704C46.196 345.904 46.396 346.152 46.54 346.448C46.692 346.744 46.768 347.06 46.768 347.396C46.768 347.82 46.66 348.204 46.444 348.548C46.228 348.884 45.912 349.152 45.496 349.352C45.088 349.544 44.604 349.64 44.044 349.64H40.924V341.276H43.924C44.492 341.276 44.976 341.372 45.376 341.564C45.776 341.748 46.076 342 46.276 342.32C46.476 342.64 46.576 343 46.576 343.4C46.576 343.896 46.44 344.308 46.168 344.636C45.904 344.956 45.552 345.188 45.112 345.332ZM42.016 344.888H43.852C44.364 344.888 44.76 344.768 45.04 344.528C45.32 344.288 45.46 343.956 45.46 343.532C45.46 343.108 45.32 342.776 45.04 342.536C44.76 342.296 44.356 342.176 43.828 342.176H42.016V344.888ZM43.948 348.74C44.492 348.74 44.916 348.612 45.22 348.356C45.524 348.1 45.676 347.744 45.676 347.288C45.676 346.824 45.516 346.46 45.196 346.196C44.876 345.924 44.448 345.788 43.912 345.788H42.016V348.74H43.948ZM49.3754 348.752H52.3034V349.64H48.2834V341.276H49.3754V348.752ZM54.5311 341.276V346.568C54.5311 347.312 54.7111 347.864 55.0711 348.224C55.4391 348.584 55.9471 348.764 56.5951 348.764C57.2351 348.764 57.7351 348.584 58.0951 348.224C58.4631 347.864 58.6471 347.312 58.6471 346.568V341.276H59.7391V346.556C59.7391 347.252 59.5991 347.84 59.3191 348.32C59.0391 348.792 58.6591 349.144 58.1791 349.376C57.7071 349.608 57.1751 349.724 56.5831 349.724C55.9911 349.724 55.4551 349.608 54.9751 349.376C54.5031 349.144 54.1271 348.792 53.8471 348.32C53.5751 347.84 53.4391 347.252 53.4391 346.556V341.276H54.5311ZM62.6527 342.164V344.96H65.7007V345.86H62.6527V348.74H66.0607V349.64H61.5607V341.264H66.0607V342.164H62.6527ZM76.0723 341.816L72.7363 349.64H71.6323L75.0163 341.924H70.3843V340.988H76.0723V341.816ZM77.2831 345.212C77.2831 343.836 77.5071 342.764 77.9551 341.996C78.4031 341.22 79.1871 340.832 80.3071 340.832C81.4191 340.832 82.1991 341.22 82.6471 341.996C83.0951 342.764 83.3191 343.836 83.3191 345.212C83.3191 346.612 83.0951 347.7 82.6471 348.476C82.1991 349.252 81.4191 349.64 80.3071 349.64C79.1871 349.64 78.4031 349.252 77.9551 348.476C77.5071 347.7 77.2831 346.612 77.2831 345.212ZM82.2391 345.212C82.2391 344.516 82.1911 343.928 82.0951 343.448C82.0071 342.96 81.8191 342.568 81.5311 342.272C81.2511 341.976 80.8431 341.828 80.3071 341.828C79.7631 341.828 79.3471 341.976 79.0591 342.272C78.7791 342.568 78.5911 342.96 78.4951 343.448C78.4071 343.928 78.3631 344.516 78.3631 345.212C78.3631 345.932 78.4071 346.536 78.4951 347.024C78.5911 347.512 78.7791 347.904 79.0591 348.2C79.3471 348.496 79.7631 348.644 80.3071 348.644C80.8431 348.644 81.2511 348.496 81.5311 348.2C81.8191 347.904 82.0071 347.512 82.0951 347.024C82.1911 346.536 82.2391 345.932 82.2391 345.212ZM84.8182 345.212C84.8182 343.836 85.0422 342.764 85.4902 341.996C85.9382 341.22 86.7222 340.832 87.8422 340.832C88.9542 340.832 89.7342 341.22 90.1822 341.996C90.6302 342.764 90.8542 343.836 90.8542 345.212C90.8542 346.612 90.6302 347.7 90.1822 348.476C89.7342 349.252 88.9542 349.64 87.8422 349.64C86.7222 349.64 85.9382 349.252 85.4902 348.476C85.0422 347.7 84.8182 346.612 84.8182 345.212ZM89.7742 345.212C89.7742 344.516 89.7262 343.928 89.6302 343.448C89.5422 342.96 89.3542 342.568 89.0662 342.272C88.7862 341.976 88.3782 341.828 87.8422 341.828C87.2982 341.828 86.8822 341.976 86.5942 342.272C86.3142 342.568 86.1262 342.96 86.0302 343.448C85.9422 343.928 85.8982 344.516 85.8982 345.212C85.8982 345.932 85.9422 346.536 86.0302 347.024C86.1262 347.512 86.3142 347.904 86.5942 348.2C86.8822 348.496 87.2982 348.644 87.8422 348.644C88.3782 348.644 88.7862 348.496 89.0662 348.2C89.3542 347.904 89.5422 347.512 89.6302 347.024C89.7262 346.536 89.7742 345.932 89.7742 345.212Z" fill="white"/>
<rect width="820" height="44.25" transform="translate(20 367.765)" fill="#182339"/>
<path d="M45.112 389.582C45.416 389.63 45.692 389.754 45.94 389.954C46.196 390.154 46.396 390.402 46.54 390.698C46.692 390.994 46.768 391.31 46.768 391.646C46.768 392.07 46.66 392.454 46.444 392.798C46.228 393.134 45.912 393.402 45.496 393.602C45.088 393.794 44.604 393.89 44.044 393.89H40.924V385.526H43.924C44.492 385.526 44.976 385.622 45.376 385.814C45.776 385.998 46.076 386.25 46.276 386.57C46.476 386.89 46.576 387.25 46.576 387.65C46.576 388.146 46.44 388.558 46.168 388.886C45.904 389.206 45.552 389.438 45.112 389.582ZM42.016 389.138H43.852C44.364 389.138 44.76 389.018 45.04 388.778C45.32 388.538 45.46 388.206 45.46 387.782C45.46 387.358 45.32 387.026 45.04 386.786C44.76 386.546 44.356 386.426 43.828 386.426H42.016V389.138ZM43.948 392.99C44.492 392.99 44.916 392.862 45.22 392.606C45.524 392.35 45.676 391.994 45.676 391.538C45.676 391.074 45.516 390.71 45.196 390.446C44.876 390.174 44.448 390.038 43.912 390.038H42.016V392.99H43.948ZM49.3754 393.002H52.3034V393.89H48.2834V385.526H49.3754V393.002ZM54.5311 385.526V390.818C54.5311 391.562 54.7111 392.114 55.0711 392.474C55.4391 392.834 55.9471 393.014 56.5951 393.014C57.2351 393.014 57.7351 392.834 58.0951 392.474C58.4631 392.114 58.6471 391.562 58.6471 390.818V385.526H59.7391V390.806C59.7391 391.502 59.5991 392.09 59.3191 392.57C59.0391 393.042 58.6591 393.394 58.1791 393.626C57.7071 393.858 57.1751 393.974 56.5831 393.974C55.9911 393.974 55.4551 393.858 54.9751 393.626C54.5031 393.394 54.1271 393.042 53.8471 392.57C53.5751 392.09 53.4391 391.502 53.4391 390.806V385.526H54.5311ZM62.6527 386.414V389.21H65.7007V390.11H62.6527V392.99H66.0607V393.89H61.5607V385.514H66.0607V386.414H62.6527ZM72.1363 391.562C72.2163 392.018 72.4003 392.37 72.6883 392.618C72.9843 392.866 73.3803 392.99 73.8763 392.99C74.5403 392.99 75.0283 392.73 75.3403 392.21C75.6603 391.69 75.8123 390.814 75.7963 389.582C75.6283 389.942 75.3483 390.226 74.9563 390.434C74.5643 390.634 74.1283 390.734 73.6483 390.734C73.1123 390.734 72.6323 390.626 72.2083 390.41C71.7923 390.186 71.4643 389.862 71.2243 389.438C70.9843 389.014 70.8643 388.502 70.8643 387.902C70.8643 387.046 71.1123 386.358 71.6083 385.838C72.1043 385.31 72.8083 385.046 73.7203 385.046C74.8403 385.046 75.6243 385.41 76.0723 386.138C76.5283 386.866 76.7563 387.95 76.7563 389.39C76.7563 390.398 76.6643 391.23 76.4803 391.886C76.3043 392.542 76.0003 393.042 75.5683 393.386C75.1443 393.73 74.5603 393.902 73.8163 393.902C73.0003 393.902 72.3643 393.682 71.9083 393.242C71.4523 392.802 71.1923 392.242 71.1283 391.562H72.1363ZM73.8283 389.81C74.3643 389.81 74.8043 389.646 75.1483 389.318C75.4923 388.982 75.6643 388.53 75.6643 387.962C75.6643 387.362 75.4963 386.878 75.1603 386.51C74.8243 386.142 74.3523 385.958 73.7443 385.958C73.1843 385.958 72.7363 386.134 72.4003 386.486C72.0723 386.838 71.9083 387.302 71.9083 387.878C71.9083 388.462 72.0723 388.93 72.4003 389.282C72.7283 389.634 73.2043 389.81 73.8283 389.81ZM78.2909 389.462C78.2909 388.086 78.5149 387.014 78.9629 386.246C79.4109 385.47 80.1949 385.082 81.3149 385.082C82.4269 385.082 83.2069 385.47 83.6549 386.246C84.1029 387.014 84.3269 388.086 84.3269 389.462C84.3269 390.862 84.1029 391.95 83.6549 392.726C83.2069 393.502 82.4269 393.89 81.3149 393.89C80.1949 393.89 79.4109 393.502 78.9629 392.726C78.5149 391.95 78.2909 390.862 78.2909 389.462ZM83.2469 389.462C83.2469 388.766 83.1989 388.178 83.1029 387.698C83.0149 387.21 82.8269 386.818 82.5389 386.522C82.2589 386.226 81.8509 386.078 81.3149 386.078C80.7709 386.078 80.3549 386.226 80.0669 386.522C79.7869 386.818 79.5989 387.21 79.5029 387.698C79.4149 388.178 79.3709 388.766 79.3709 389.462C79.3709 390.182 79.4149 390.786 79.5029 391.274C79.5989 391.762 79.7869 392.154 80.0669 392.45C80.3549 392.746 80.7709 392.894 81.3149 392.894C81.8509 392.894 82.2589 392.746 82.5389 392.45C82.8269 392.154 83.0149 391.762 83.1029 391.274C83.1989 390.786 83.2469 390.182 83.2469 389.462ZM85.826 389.462C85.826 388.086 86.05 387.014 86.498 386.246C86.946 385.47 87.73 385.082 88.85 385.082C89.962 385.082 90.742 385.47 91.19 386.246C91.638 387.014 91.862 388.086 91.862 389.462C91.862 390.862 91.638 391.95 91.19 392.726C90.742 393.502 89.962 393.89 88.85 393.89C87.73 393.89 86.946 393.502 86.498 392.726C86.05 391.95 85.826 390.862 85.826 389.462ZM90.782 389.462C90.782 388.766 90.734 388.178 90.638 387.698C90.55 387.21 90.362 386.818 90.074 386.522C89.794 386.226 89.386 386.078 88.85 386.078C88.306 386.078 87.89 386.226 87.602 386.522C87.322 386.818 87.134 387.21 87.038 387.698C86.95 388.178 86.906 388.766 86.906 389.462C86.906 390.182 86.95 390.786 87.038 391.274C87.134 391.762 87.322 392.154 87.602 392.45C87.89 392.746 88.306 392.894 88.85 392.894C89.386 392.894 89.794 392.746 90.074 392.45C90.362 392.154 90.55 391.762 90.638 391.274C90.734 390.786 90.782 390.182 90.782 389.462Z" fill="white"/>
</g>
</g>
<defs>
<linearGradient id="paint0_linear_1176_20139" x1="49.1243" y1="-337" x2="49.1243" y2="199" gradientUnits="userSpaceOnUse">
<stop stop-color="#101A2D"/>
<stop offset="1" stop-color="#2F5187"/>
</linearGradient>
<linearGradient id="paint1_linear_1176_20139" x1="-12.3757" y1="25" x2="-12.3757" y2="579" gradientUnits="userSpaceOnUse">
<stop stop-color="#101A2D"/>
<stop offset="1" stop-color="#2F5187"/>
</linearGradient>
<clipPath id="clip0_1176_20139">
<rect width="860" height="432.015" fill="white"/>
</clipPath>
<clipPath id="clip1_1176_20139">
<rect width="537" height="536" fill="white" transform="translate(-219.376 -337)"/>
</clipPath>
<clipPath id="clip2_1176_20139">
<rect width="554" height="554" fill="white" transform="translate(-289.376 25)"/>
</clipPath>
<clipPath id="clip3_1176_20139">
<rect x="20" y="235.015" width="820" height="177" rx="4" fill="white"/>
</clipPath>
</defs>
</svg>
